<svg aria-hidden="true" style="position: absolute; width: 0; height: 0; overflow: hidden;" version="1.1" xmlns="http://www.w3.org/2000/svg" xmlns:xlink="http://www.w3.org/1999/xlink">
<defs>
<symbol id="icon-sprite" viewBox="0 0 246 32">
<path d="M172.838 31.865h57.568c8.792 0 15.919-7.127 15.919-15.919v0c0-0.008 0-0.018 0-0.027 0-8.792-7.127-15.919-15.919-15.919 0 0-0 0-0 0h-57.568c0 0 0 0-0 0-8.792 0-15.919 7.127-15.919 15.919 0 0.009 0 0.019 0 0.028v-0.001c0 8.792 7.127 15.919 15.919 15.919v0zM9.099 31.91h7.027v-25.676h9.099v-6.234h-25.225v6.216h9.099zM34.414 31.91h7.027v-24.477h0.090l8.063 24.459h5.405l8.333-24.459h0.090v24.459h7.027v-31.892h-10.586l-7.387 20.811h-0.090l-7.342-20.811h-10.631zM80.306 0.108h10.541c2.587 0.004 5.095 0.332 7.489 0.947l-0.21-0.046c2.293 0.555 4.305 1.514 6.055 2.807l-0.046-0.032c1.724 1.305 3.104 2.972 4.046 4.893l0.035 0.080c0.955 2.036 1.512 4.421 1.512 6.936 0 0.175-0.003 0.348-0.008 0.522l0.001-0.025c0.002 0.094 0.003 0.204 0.003 0.315 0 2.366-0.54 4.607-1.502 6.605l0.040-0.091c-0.976 1.967-2.305 3.618-3.919 4.934l-0.027 0.021c-1.621 1.309-3.525 2.345-5.598 3.002l-0.123 0.034c-1.999 0.657-4.299 1.036-6.688 1.036-0.040 0-0.080-0-0.12-0l0.006 0h-11.486zM87.333 25.514h3.604c0.040 0 0.086 0 0.133 0 1.55 0 3.058-0.181 4.504-0.522l-0.132 0.026c1.393-0.289 2.622-0.844 3.686-1.614l-0.028 0.019c1.033-0.787 1.853-1.8 2.394-2.969l0.020-0.049c0.571-1.269 0.904-2.75 0.904-4.309 0-0.094-0.001-0.188-0.004-0.281l0 0.014c0.001-0.050 0.002-0.109 0.002-0.169 0-1.421-0.333-2.764-0.926-3.955l0.023 0.052c-0.582-1.146-1.381-2.104-2.35-2.851l-0.019-0.014c-0.982-0.736-2.132-1.314-3.377-1.667l-0.074-0.018c-1.24-0.36-2.665-0.568-4.139-0.568-0.027 0-0.054 0-0.082 0l0.004-0h-4.144zM119.901 0.108h11.892c1.472 0.001 2.918 0.109 4.332 0.317l-0.161-0.019c1.4 0.185 2.668 0.598 3.82 1.201l-0.063-0.030c1.112 0.585 2.023 1.415 2.686 2.423l0.017 0.027c0.657 1.093 1.045 2.412 1.045 3.822 0 0.129-0.003 0.257-0.010 0.385l0.001-0.018c0.003 0.076 0.005 0.165 0.005 0.254 0 1.617-0.57 3.101-1.519 4.262l0.010-0.012c-1.034 1.192-2.39 2.079-3.933 2.526l-0.058 0.014v0.054c1.069 0.156 2.034 0.472 2.917 0.925l-0.052-0.024c0.858 0.436 1.589 0.994 2.202 1.661l0.005 0.005c0.603 0.662 1.083 1.447 1.399 2.312l0.016 0.049c0.314 0.838 0.496 1.806 0.496 2.817 0 0.023-0 0.046-0 0.069l0-0.004c0.003 0.083 0.005 0.181 0.005 0.28 0 1.453-0.404 2.812-1.105 3.971l0.019-0.034c-0.717 1.111-1.654 2.019-2.755 2.682l-0.038 0.021c-1.107 0.676-2.395 1.191-3.769 1.473l-0.078 0.013c-1.277 0.286-2.744 0.45-4.25 0.45-0.004 0-0.008 0-0.012 0h-13.062zM126.928 12.856h5.090c0.011 0 0.024 0 0.038 0 0.555 0 1.096-0.066 1.613-0.19l-0.047 0.009c0.536-0.119 1.009-0.321 1.431-0.596l-0.017 0.010c0.423-0.275 0.766-0.639 1.010-1.066l0.008-0.015c0.239-0.443 0.38-0.97 0.38-1.529 0-0.032-0-0.065-0.001-0.097l0 0.005c0.002-0.045 0.004-0.097 0.004-0.15 0-0.549-0.149-1.063-0.408-1.504l0.008 0.014c-0.282-0.426-0.655-0.769-1.092-1.010l-0.016-0.008c-0.462-0.237-0.998-0.417-1.563-0.509l-0.032-0.004c-0.5-0.101-1.076-0.16-1.665-0.162h-4.776zM126.928 26.054h6.306c0.006 0 0.013 0 0.020 0 0.577 0 1.139-0.066 1.679-0.19l-0.050 0.010c0.571-0.119 1.075-0.338 1.519-0.64l-0.015 0.009c0.455-0.303 0.828-0.696 1.099-1.155l0.009-0.016c0.267-0.477 0.425-1.046 0.425-1.652 0-0.037-0.001-0.073-0.002-0.11l0 0.005c0.001-0.031 0.002-0.068 0.002-0.106 0-0.639-0.21-1.229-0.566-1.704l0.005 0.007c-0.375-0.461-0.853-0.823-1.4-1.054l-0.024-0.009c-0.522-0.224-1.129-0.397-1.761-0.491l-0.040-0.005c-0.552-0.083-1.192-0.132-1.843-0.135h-5.319z"></path>
</symbol>
</defs>
</svg>
